<?xml version="1.0" encoding="utf-8"?>
<!-- Generator: Adobe Illustrator 25.2.1, SVG Export Plug-In . SVG Version: 6.00 Build 0)  -->
<svg version="1.1" id="Слой_1" xmlns="http://www.w3.org/2000/svg" xmlns:xlink="http://www.w3.org/1999/xlink" x="0px" y="0px"
	 viewBox="0 0 512 512" style="enable-background:new 0 0 512 512;" xml:space="preserve">
<path d="M416,506h-84c-6.6,0-12-7-12-15.6v-52.1c0-8.6,5.4-15.6,12-15.6h84c17.7,0,32-18.6,32-41.7V131c0-23-14.3-41.7-32-41.7h-84
	c-6.6,0-12-7-12-15.6V21.6C320,13,325.4,6,332,6h84c53,0,96,56,96,125v250C512,450,469,506,416,506z M369,244.4L201,89.5
	c-15-13.8-41-4.1-41,15.7v88.5H24c-13.3,0-24,9.9-24,22.1v88.5c0,12.3,10.7,22.1,24,22.1h136V415c0,19.8,26,29.5,41,15.7l168-154.9
	C378.3,267.1,378.3,253.1,369,244.4z"/>
</svg>
